<svg width="38" height="38" viewBox="0 0 38 38" fill="none" xmlns="http://www.w3.org/2000/svg">
<g clip-path="url(#clip0_226_2005)">
<path fill-rule="evenodd" clip-rule="evenodd" d="M32.0083 34.2H5.99154C4.83444 34.2 3.94716 33.1757 4.11056 32.0319L6.28224 16.8319C6.41524 15.8952 7.21705 15.2 8.16325 15.2H9.49896V19C9.49896 20.0488 10.3502 20.9 11.399 20.9C12.4497 20.9 13.299 20.0488 13.299 19V15.2H24.699V19C24.699 20.0488 25.5502 20.9 26.599 20.9C27.6497 20.9 28.499 20.0488 28.499 19V15.2H29.8365C30.7827 15.2 31.5846 15.8952 31.7176 16.8319L33.8892 32.0319C34.0526 33.1757 33.1654 34.2 32.0083 34.2ZM13.299 9.5C13.299 6.3574 15.8564 3.8 18.999 3.8C22.1435 3.8 24.699 5.7 24.699 9.5V11.4H13.299V9.5ZM37.961 33.6624L35.2459 14.6624C34.9799 12.7909 33.3763 11.4 31.4839 11.4H28.499V9.5C28.499 3.8 24.2373 0 18.999 0C13.7626 0 9.49896 4.2617 9.49896 9.5V11.4H7.09546C5.20496 11.4 3.01994 12.7909 2.75204 14.6624L0.0388514 33.6624C-0.287949 35.9519 1.48854 38 3.80084 38H34.199C36.5113 38 38.2878 35.9519 37.961 33.6624Z" fill="#697184"/>
</g>
<defs>
<clipPath id="clip0_226_2005">
<rect width="38" height="38" fill="white"/>
</clipPath>
</defs>
</svg>
