<svg width="32" height="32" viewBox="0 0 32 32" fill="none" xmlns="http://www.w3.org/2000/svg">
<path d="M0.583466 8.0219C0.583466 10.4663 3.01271 12.533 5.88685 12.533H6.34705V13.3941C6.34705 13.8141 6.47813 14.2086 6.71637 14.5086L19.7993 30.8896C20.0719 31.2308 20.4585 31.4252 20.8603 31.4219C21.2622 31.4196 21.6468 31.2196 21.9166 30.8763L30.8327 19.4741C31.07 19.1719 31.1992 18.7808 31.2001 18.3741C31.2001 17.943 31.0566 17.5363 30.7964 17.2274L17.9001 1.92413C17.6312 1.60413 17.2562 1.42191 16.8706 1.42191L7.76212 1.42191C6.98235 1.42191 6.34705 2.1608 6.34705 3.06857V3.53079C6.18919 3.51857 6.02941 3.51079 5.86771 3.51079C2.96774 3.51079 0.583466 5.53412 0.583466 8.0219ZM5.88685 11.4219C3.57146 11.4219 1.54119 9.83301 1.54119 8.0219C1.54119 6.17857 3.51214 4.62079 5.84475 4.62079C6.01697 4.62079 6.18058 4.64412 6.34705 4.65968L6.34705 11.4219H5.88685ZM7.30383 3.06857C7.30383 2.76857 7.50475 2.53302 7.76212 2.53302L16.8696 2.53302C16.9997 2.53302 17.126 2.59413 17.215 2.69968L30.1113 18.0041C30.2749 18.1963 30.2816 18.5252 30.1238 18.7274L21.2086 30.1296C21.1177 30.2452 20.9923 30.3096 20.8555 30.3108C20.7187 30.3119 20.5924 30.2485 20.5006 30.1341L7.41864 13.7541C7.32392 13.6352 7.30383 13.493 7.30383 13.3941L7.30383 4.8319C8.12569 5.06301 8.83179 5.47635 9.33027 6.01746C9.31783 6.0319 9.30348 6.04079 9.292 6.05523C8.38689 7.14857 8.38593 9.04412 9.292 10.1386C9.74933 10.6908 10.3588 10.9952 11.0075 10.9952C11.6562 10.9952 12.2666 10.6919 12.7239 10.1386C13.1765 9.59189 13.4262 8.86634 13.4262 8.09745C13.4262 7.32745 13.1765 6.6019 12.7239 6.05523C12.2656 5.50301 11.6562 5.19857 11.0075 5.19857C10.7147 5.19857 10.4315 5.26857 10.1655 5.38746C9.47857 4.57301 8.47204 3.9619 7.30287 3.6819L7.30383 3.06857ZM11.0084 6.31079C11.395 6.31079 11.7605 6.49301 12.036 6.82634C12.5967 7.5019 12.5976 8.69079 12.036 9.36856C11.7605 9.70189 11.3959 9.88412 11.0084 9.88412C10.8305 9.88412 10.6573 9.84078 10.4956 9.76634C11.0926 9.04523 11.1309 8.0219 11.1309 7.92634C11.1309 7.92412 11.1309 7.9219 11.1309 7.92079C11.1309 7.36301 11.0008 6.83079 10.7731 6.33857C10.8506 6.32412 10.9281 6.31079 11.0084 6.31079ZM9.76273 9.0219C9.62495 8.74523 9.5465 8.43079 9.5465 8.09856C9.5465 7.66412 9.67853 7.25745 9.90911 6.93301C10.0383 7.24745 10.1273 7.57523 10.1273 7.92301C10.1273 7.95745 10.1167 8.61523 9.76273 9.0219Z" fill="black" stroke="black" stroke-width="1.08"/>
</svg>
